<mxfile host="Electron" agent="Mozilla/5.0 (Windows NT 10.0; Win64; x64) AppleWebKit/537.36 (KHTML, like Gecko) draw.io/24.7.8 Chrome/128.0.6613.36 Electron/32.0.1 Safari/537.36" version="24.7.8">
  <diagram name="Page-1" id="AIigmaH4G415NGv4w28b">
    <mxGraphModel dx="2126" dy="606" grid="1" gridSize="10" guides="1" tooltips="1" connect="1" arrows="1" fold="1" page="1" pageScale="1" pageWidth="850" pageHeight="1100" math="0" shadow="0">
      <root>
        <mxCell id="0" />
        <mxCell id="1" parent="0" />
        <mxCell id="CXwAQgRN35xxSamlwrBf-2" value="AUTHOR" style="ellipse;whiteSpace=wrap;html=1;align=center;" parent="1" vertex="1">
          <mxGeometry x="-70" y="100" width="100" height="40" as="geometry" />
        </mxCell>
        <mxCell id="CXwAQgRN35xxSamlwrBf-3" value="BOOKID" style="ellipse;whiteSpace=wrap;html=1;align=center;fontStyle=4;" parent="1" vertex="1">
          <mxGeometry x="90" y="110" width="100" height="40" as="geometry" />
        </mxCell>
        <mxCell id="CXwAQgRN35xxSamlwrBf-5" style="edgeStyle=orthogonalEdgeStyle;rounded=0;orthogonalLoop=1;jettySize=auto;html=1;exitX=0.5;exitY=1;exitDx=0;exitDy=0;" parent="1" edge="1">
          <mxGeometry relative="1" as="geometry">
            <mxPoint x="185" y="220" as="sourcePoint" />
            <mxPoint x="185" y="220" as="targetPoint" />
          </mxGeometry>
        </mxCell>
        <mxCell id="CXwAQgRN35xxSamlwrBf-7" value="TITLE" style="ellipse;whiteSpace=wrap;html=1;align=center;" parent="1" vertex="1">
          <mxGeometry x="-130" y="260" width="100" height="40" as="geometry" />
        </mxCell>
        <mxCell id="CXwAQgRN35xxSamlwrBf-8" value="PUBLISH" style="ellipse;whiteSpace=wrap;html=1;align=center;" parent="1" vertex="1">
          <mxGeometry x="-130" y="180" width="100" height="40" as="geometry" />
        </mxCell>
        <mxCell id="CXwAQgRN35xxSamlwrBf-9" value="PRICE" style="ellipse;whiteSpace=wrap;html=1;align=center;" parent="1" vertex="1">
          <mxGeometry x="60" y="270" width="100" height="40" as="geometry" />
        </mxCell>
        <mxCell id="CXwAQgRN35xxSamlwrBf-20" style="edgeStyle=orthogonalEdgeStyle;rounded=0;orthogonalLoop=1;jettySize=auto;html=1;" parent="1" source="CXwAQgRN35xxSamlwrBf-10" edge="1">
          <mxGeometry relative="1" as="geometry">
            <mxPoint x="380" y="130" as="targetPoint" />
          </mxGeometry>
        </mxCell>
        <mxCell id="CXwAQgRN35xxSamlwrBf-45" style="edgeStyle=orthogonalEdgeStyle;rounded=0;orthogonalLoop=1;jettySize=auto;html=1;exitX=0;exitY=0.5;exitDx=0;exitDy=0;entryX=1;entryY=0.75;entryDx=0;entryDy=0;" parent="1" source="CXwAQgRN35xxSamlwrBf-10" target="CXwAQgRN35xxSamlwrBf-11" edge="1">
          <mxGeometry relative="1" as="geometry" />
        </mxCell>
        <mxCell id="CXwAQgRN35xxSamlwrBf-46" style="edgeStyle=orthogonalEdgeStyle;rounded=0;orthogonalLoop=1;jettySize=auto;html=1;exitX=1;exitY=0.5;exitDx=0;exitDy=0;entryX=0;entryY=0.5;entryDx=0;entryDy=0;" parent="1" source="CXwAQgRN35xxSamlwrBf-10" target="CXwAQgRN35xxSamlwrBf-19" edge="1">
          <mxGeometry relative="1" as="geometry" />
        </mxCell>
        <mxCell id="CXwAQgRN35xxSamlwrBf-47" style="edgeStyle=orthogonalEdgeStyle;rounded=0;orthogonalLoop=1;jettySize=auto;html=1;exitX=0.5;exitY=1;exitDx=0;exitDy=0;" parent="1" source="CXwAQgRN35xxSamlwrBf-10" edge="1">
          <mxGeometry relative="1" as="geometry">
            <mxPoint x="270" y="290" as="targetPoint" />
          </mxGeometry>
        </mxCell>
        <mxCell id="CXwAQgRN35xxSamlwrBf-10" value="BROOWER" style="shape=rhombus;perimeter=rhombusPerimeter;whiteSpace=wrap;html=1;align=center;" parent="1" vertex="1">
          <mxGeometry x="290" y="200" width="120" height="60" as="geometry" />
        </mxCell>
        <mxCell id="CXwAQgRN35xxSamlwrBf-11" value="BOOK" style="whiteSpace=wrap;html=1;align=center;" parent="1" vertex="1">
          <mxGeometry x="-10" y="200" width="100" height="40" as="geometry" />
        </mxCell>
        <mxCell id="CXwAQgRN35xxSamlwrBf-19" value="MEMBER" style="whiteSpace=wrap;html=1;align=center;" parent="1" vertex="1">
          <mxGeometry x="620" y="210" width="100" height="40" as="geometry" />
        </mxCell>
        <mxCell id="CXwAQgRN35xxSamlwrBf-21" value="BRROWERID" style="ellipse;whiteSpace=wrap;html=1;align=center;dashed=1;" parent="1" vertex="1">
          <mxGeometry x="330" y="80" width="100" height="40" as="geometry" />
        </mxCell>
        <mxCell id="CXwAQgRN35xxSamlwrBf-24" value="" style="endArrow=none;html=1;rounded=0;exitX=0;exitY=0.5;exitDx=0;exitDy=0;" parent="1" edge="1">
          <mxGeometry relative="1" as="geometry">
            <mxPoint x="400" y="280" as="sourcePoint" />
            <mxPoint x="368.57142857142844" y="260" as="targetPoint" />
          </mxGeometry>
        </mxCell>
        <mxCell id="CXwAQgRN35xxSamlwrBf-26" value="N" style="resizable=0;html=1;whiteSpace=wrap;align=right;verticalAlign=bottom;" parent="CXwAQgRN35xxSamlwrBf-24" connectable="0" vertex="1">
          <mxGeometry x="1" relative="1" as="geometry" />
        </mxCell>
        <mxCell id="CXwAQgRN35xxSamlwrBf-31" value="LASTNAME" style="ellipse;whiteSpace=wrap;html=1;align=center;fontStyle=4;" parent="1" vertex="1">
          <mxGeometry x="690" y="280" width="100" height="40" as="geometry" />
        </mxCell>
        <mxCell id="CXwAQgRN35xxSamlwrBf-32" value="FIRSTNAME" style="ellipse;whiteSpace=wrap;html=1;align=center;" parent="1" vertex="1">
          <mxGeometry x="720" y="160" width="100" height="40" as="geometry" />
        </mxCell>
        <mxCell id="CXwAQgRN35xxSamlwrBf-34" value="ADDRESS" style="ellipse;whiteSpace=wrap;html=1;align=center;" parent="1" vertex="1">
          <mxGeometry x="540" y="160" width="100" height="40" as="geometry" />
        </mxCell>
        <mxCell id="CXwAQgRN35xxSamlwrBf-35" value="PHONE NUMBER" style="ellipse;whiteSpace=wrap;html=1;align=center;dashed=1;" parent="1" vertex="1">
          <mxGeometry x="810" y="250" width="100" height="40" as="geometry" />
        </mxCell>
        <mxCell id="CXwAQgRN35xxSamlwrBf-36" value="EMAILL" style="ellipse;whiteSpace=wrap;html=1;align=center;" parent="1" vertex="1">
          <mxGeometry x="600" y="110" width="100" height="40" as="geometry" />
        </mxCell>
        <mxCell id="CXwAQgRN35xxSamlwrBf-39" value="MEMEBRID" style="ellipse;whiteSpace=wrap;html=1;align=center;dashed=1;" parent="1" vertex="1">
          <mxGeometry x="510" y="270" width="100" height="40" as="geometry" />
        </mxCell>
        <mxCell id="CXwAQgRN35xxSamlwrBf-40" value="ISSUE" style="ellipse;whiteSpace=wrap;html=1;align=center;" parent="1" vertex="1">
          <mxGeometry x="375" y="290" width="100" height="40" as="geometry" />
        </mxCell>
        <mxCell id="CXwAQgRN35xxSamlwrBf-37" value="EXPIREDATE" style="ellipse;whiteSpace=wrap;html=1;align=center;fontStyle=4;" parent="1" vertex="1">
          <mxGeometry x="590" y="330" width="100" height="40" as="geometry" />
        </mxCell>
        <mxCell id="CXwAQgRN35xxSamlwrBf-44" value="" style="line;strokeWidth=1;rotatable=0;dashed=0;labelPosition=right;align=left;verticalAlign=middle;spacingTop=0;spacingLeft=6;points=[];portConstraint=eastwest;" parent="1" vertex="1">
          <mxGeometry x="410" y="225" width="60" height="10" as="geometry" />
        </mxCell>
        <mxCell id="CXwAQgRN35xxSamlwrBf-49" value="RETUREN&lt;div&gt;DATE&lt;/div&gt;" style="ellipse;whiteSpace=wrap;html=1;align=center;" parent="1" vertex="1">
          <mxGeometry x="220" y="280" width="100" height="40" as="geometry" />
        </mxCell>
      </root>
    </mxGraphModel>
  </diagram>
</mxfile>
